<?xml version="1.0" encoding="utf-8"?>
<!-- Designed by Vexels.com - 2016 All Rights Reserved - https://vexels.com/terms-and-conditions/  -->

<svg version="1.0" id="Capa_1" xmlns="http://www.w3.org/2000/svg" xmlns:xlink="http://www.w3.org/1999/xlink" x="0px" y="0px"
	 width="1200px" height="1200px" viewBox="0 0 1200 1200" enable-background="new 0 0 1200 1200" xml:space="preserve">
<g>
	<path d="M600,78.961C312.698,78.961,78.961,312.698,78.961,600S312.698,1121.039,600,1121.039S1121.039,887.302,1121.039,600
		S887.302,78.961,600,78.961z M1085.271,600c0,267.584-217.686,485.286-485.271,485.286c-267.584,0-485.286-217.702-485.286-485.286
		S332.415,114.729,600,114.729C867.585,114.729,1085.271,332.416,1085.271,600z"/>
	<g>
		<path d="M295.641,471.08c4.878-11.994,13.824-17.009,26.624-15.883c4.537,0.4,9.137,0.066,14.156,0.066
			c0,41.173,0,82.186,0,123.471c-8.115,0-16.193,0.512-24.176-0.138c-8.721-0.71-12.848-7.606-16.603-14.495
			C295.641,533.093,295.641,502.087,295.641,471.08z"/>
		<path d="M904.359,564.101c-1.905,2.895-3.215,6.626-5.85,8.487c-3.975,2.809-8.711,5.432-13.416,6.11
			c-7.026,1.012-14.304,0.264-21.759,0.264c0-41.377,0-82.278,0-123.523c7.971,0,15.725-0.602,23.345,0.156
			c9.181,0.912,14.171,7.584,17.68,15.485C904.359,502.087,904.359,533.093,904.359,564.101z"/>
		<path d="M392.845,827.489c-14.483-0.714-25.576-6.214-33.729-17.299c-6.128-8.333-7.896-17.834-7.889-27.923
			c0.038-80.863,0.022-161.727,0.022-242.588c0-40.697,0.156-81.393-0.048-122.088c-0.156-30.916,8.565-58.866,28.417-82.57
			c22.871-27.309,52.364-43.354,88.24-44.434c37.316-1.124,74.691-0.36,112.037-0.378c47.039-0.022,94.078,0.19,141.114-0.092
			c21.599-0.128,42.041,4.217,60.951,14.447c21.515,11.642,38.37,28.279,50.2,49.864c10.749,19.61,15.257,40.655,15.247,62.882
			c-0.044,120.5-0.376,241.005,0.252,361.505c0.142,26.878-14.391,47.085-41.867,48.941c0,12.582,0.22,25.224-0.1,37.854
			c-0.142,5.564-0.752,11.274-2.241,16.613c-4.119,14.775-18.652,26.724-34.079,27.296c-16.885,0.624-33.839,0.736-50.712-0.032
			c-18.464-0.842-34.625-16.953-35.933-35.533c-0.914-12.978-0.464-26.05-0.616-39.08c-0.026-2.271-0.002-4.545-0.002-7.182
			c-55.241,0-110.088,0-165.594,0c0,12.78,0.264,25.414-0.118,38.032c-0.174,5.726-0.976,11.61-2.623,17.083
			c-4.391,14.581-18.762,26.16-34.007,26.718c-16.887,0.62-33.84,0.728-50.714-0.032c-18.576-0.836-34.923-17.609-35.831-36.213
			c-0.644-13.182-0.288-26.414-0.374-39.624C392.835,831.752,392.845,829.846,392.845,827.489z M806.206,414.41
			c-138.175,0-275.972,0-413.599,0c0,82.81,0,165.168,0,247.557c138.061,0,275.718,0,413.599,0
			C806.206,579.34,806.206,497.106,806.206,414.41z M516.982,331.318c0,13.914,0,27.511,0,41.163c55.141,0,109.822,0,164.673,0
			c0-13.868,0-27.441,0-41.163C626.502,331.318,571.807,331.318,516.982,331.318z M392.649,745.802
			c1.056,23.305,20.104,41.215,42.775,40.217c22.565-0.994,40.629-20.17,39.752-42.201c-0.926-23.273-20.12-41.293-42.791-40.173
			C409.479,704.777,391.649,723.695,392.649,745.802z M764.82,786.06c22.639-0.056,41.165-18.612,41.243-41.311
			c0.076-22.593-18.648-41.209-41.383-41.145c-22.775,0.064-41.423,18.708-41.277,41.269
			C723.547,767.54,742.228,786.116,764.82,786.06z"/>
	</g>
</g>
</svg>
